<mxfile host="app.diagrams.net" modified="2022-03-22T15:32:56.623Z" agent="5.0 (Windows NT 10.0; Win64; x64) AppleWebKit/537.36 (KHTML, like Gecko) Chrome/99.0.4844.74 Safari/537.36" etag="JGBmlz-6bUoBD9KVcQKV" version="17.1.4" type="github">
  <diagram name="Page-1" id="c7488fd3-1785-93aa-aadb-54a6760d102a">
    <mxGraphModel dx="1422" dy="772" grid="1" gridSize="10" guides="1" tooltips="1" connect="1" arrows="1" fold="1" page="1" pageScale="1" pageWidth="500" pageHeight="300" background="none" math="0" shadow="0">
      <root>
        <mxCell id="0" />
        <mxCell id="1" parent="0" />
        <mxCell id="Tccu-ew2ln0pexr-4rRw-31" value="&lt;h1&gt;Diagramme fonctionnel du UI Kit&lt;/h1&gt;" style="text;html=1;strokeColor=none;fillColor=none;spacing=5;spacingTop=-20;whiteSpace=wrap;overflow=hidden;rounded=0;align=center;" parent="1" vertex="1">
          <mxGeometry x="120" y="40" width="760" height="40" as="geometry" />
        </mxCell>
        <mxCell id="YOE7d0ipDMbA9e8X7rGO-6" value="AUTRES APPLICATIONS (SPA)" style="rounded=1;whiteSpace=wrap;html=1;arcSize=10;fillColor=#e1d5e7;strokeColor=#9673a6;" parent="1" vertex="1">
          <mxGeometry x="720" y="120" width="160" height="80" as="geometry" />
        </mxCell>
        <mxCell id="YOE7d0ipDMbA9e8X7rGO-12" value="" style="endArrow=classic;html=1;shadow=0;endSize=6;strokeColor=#000000;entryX=0.5;entryY=1;entryDx=0;entryDy=0;exitX=0.75;exitY=0;exitDx=0;exitDy=0;" parent="1" source="tBBY-zIX_COKxprFF8_Z-13" target="YOE7d0ipDMbA9e8X7rGO-6" edge="1">
          <mxGeometry width="50" height="50" relative="1" as="geometry">
            <mxPoint x="600" y="300" as="sourcePoint" />
            <mxPoint x="230" y="160" as="targetPoint" />
            <Array as="points">
              <mxPoint x="640" y="280" />
              <mxPoint x="800" y="280" />
            </Array>
          </mxGeometry>
        </mxCell>
        <mxCell id="YOE7d0ipDMbA9e8X7rGO-14" value="CHRONO SAEIV" style="rounded=1;whiteSpace=wrap;html=1;arcSize=10;fillColor=#e1d5e7;strokeColor=#9673a6;" parent="1" vertex="1">
          <mxGeometry x="520" y="120" width="160" height="80" as="geometry" />
        </mxCell>
        <mxCell id="tBBY-zIX_COKxprFF8_Z-1" value="" style="rounded=1;whiteSpace=wrap;html=1;arcSize=10;fillColor=#e1d5e7;strokeColor=#9673a6;" parent="1" vertex="1">
          <mxGeometry x="320" y="120" width="160" height="80" as="geometry" />
        </mxCell>
        <mxCell id="tBBY-zIX_COKxprFF8_Z-2" value="" style="endArrow=classic;html=1;exitX=0;exitY=0.5;exitDx=0;exitDy=0;entryX=0.5;entryY=1;entryDx=0;entryDy=0;" parent="1" source="tBBY-zIX_COKxprFF8_Z-13" target="tBBY-zIX_COKxprFF8_Z-12" edge="1">
          <mxGeometry width="50" height="50" relative="1" as="geometry">
            <mxPoint x="840" y="240" as="sourcePoint" />
            <mxPoint x="839.8" y="200" as="targetPoint" />
            <Array as="points">
              <mxPoint x="520" y="480" />
              <mxPoint x="400" y="480" />
            </Array>
          </mxGeometry>
        </mxCell>
        <mxCell id="tBBY-zIX_COKxprFF8_Z-4" value="FIGMA&lt;br&gt;&lt;font style=&quot;font-size: 10px&quot;&gt;Single Source of Truth,&amp;nbsp;Design, fondations, composants, accessibilitÃ©&lt;/font&gt;" style="rounded=1;whiteSpace=wrap;html=1;arcSize=10;fillColor=#dae8fc;strokeColor=#6c8ebf;" parent="1" vertex="1">
          <mxGeometry x="120" y="440" width="160" height="80" as="geometry" />
        </mxCell>
        <mxCell id="tBBY-zIX_COKxprFF8_Z-11" value="" style="endArrow=classic;html=1;shadow=0;endSize=6;strokeColor=#000000;entryX=0.5;entryY=1;entryDx=0;entryDy=0;exitX=0.5;exitY=0;exitDx=0;exitDy=0;" parent="1" source="tBBY-zIX_COKxprFF8_Z-13" target="YOE7d0ipDMbA9e8X7rGO-14" edge="1">
          <mxGeometry width="50" height="50" relative="1" as="geometry">
            <mxPoint x="530" y="290" as="sourcePoint" />
            <mxPoint x="680" y="200" as="targetPoint" />
            <Array as="points" />
          </mxGeometry>
        </mxCell>
        <mxCell id="tBBY-zIX_COKxprFF8_Z-12" value="UI KIT&lt;br&gt;&lt;br&gt;Private NPM Package" style="rounded=1;whiteSpace=wrap;html=1;arcSize=10;fillColor=#f8cecc;strokeColor=#b85450;" parent="1" vertex="1">
          <mxGeometry x="320" y="320" width="160" height="80" as="geometry" />
        </mxCell>
        <mxCell id="tBBY-zIX_COKxprFF8_Z-13" value="AZURE DEVOPS" style="whiteSpace=wrap;html=1;rounded=1;strokeColor=#d79b00;fillColor=#ffe6cc;arcSize=10;" parent="1" vertex="1">
          <mxGeometry x="520" y="440" width="160" height="80" as="geometry" />
        </mxCell>
        <mxCell id="tBBY-zIX_COKxprFF8_Z-14" value="" style="endArrow=classic;html=1;exitX=0.5;exitY=0;exitDx=0;exitDy=0;entryX=0.5;entryY=1;entryDx=0;entryDy=0;" parent="1" source="tBBY-zIX_COKxprFF8_Z-12" target="tBBY-zIX_COKxprFF8_Z-1" edge="1">
          <mxGeometry width="50" height="50" relative="1" as="geometry">
            <mxPoint x="850" y="450" as="sourcePoint" />
            <mxPoint x="350" y="390" as="targetPoint" />
          </mxGeometry>
        </mxCell>
        <mxCell id="tBBY-zIX_COKxprFF8_Z-15" value="CHROMATIC" style="rounded=1;whiteSpace=wrap;html=1;arcSize=10;fillColor=#d5e8d4;strokeColor=#82b366;" parent="1" vertex="1">
          <mxGeometry x="120" y="120" width="160" height="80" as="geometry" />
        </mxCell>
        <mxCell id="tBBY-zIX_COKxprFF8_Z-17" value="" style="endArrow=classic;html=1;entryX=1;entryY=0.5;entryDx=0;entryDy=0;exitX=0;exitY=0.5;exitDx=0;exitDy=0;" parent="1" source="tBBY-zIX_COKxprFF8_Z-1" target="tBBY-zIX_COKxprFF8_Z-15" edge="1">
          <mxGeometry width="50" height="50" relative="1" as="geometry">
            <mxPoint x="430" y="220" as="sourcePoint" />
            <mxPoint x="920" y="320" as="targetPoint" />
            <Array as="points" />
          </mxGeometry>
        </mxCell>
        <mxCell id="tBBY-zIX_COKxprFF8_Z-18" value="PLUGIN FIGMA&lt;br&gt;&lt;br&gt;Automatisation" style="rounded=1;whiteSpace=wrap;html=1;arcSize=10;dashed=1;" parent="1" vertex="1">
          <mxGeometry x="120" y="320" width="160" height="80" as="geometry" />
        </mxCell>
        <mxCell id="tBBY-zIX_COKxprFF8_Z-19" value="" style="endArrow=classic;html=1;exitX=0.5;exitY=0;exitDx=0;exitDy=0;entryX=0.5;entryY=1;entryDx=0;entryDy=0;" parent="1" source="tBBY-zIX_COKxprFF8_Z-4" target="tBBY-zIX_COKxprFF8_Z-18" edge="1">
          <mxGeometry width="50" height="50" relative="1" as="geometry">
            <mxPoint x="260" y="500" as="sourcePoint" />
            <mxPoint x="260" y="460" as="targetPoint" />
          </mxGeometry>
        </mxCell>
        <mxCell id="tBBY-zIX_COKxprFF8_Z-21" value="" style="endArrow=classic;html=1;entryX=0.25;entryY=1;entryDx=0;entryDy=0;exitX=0.5;exitY=0;exitDx=0;exitDy=0;" parent="1" source="tBBY-zIX_COKxprFF8_Z-18" target="tBBY-zIX_COKxprFF8_Z-1" edge="1">
          <mxGeometry width="50" height="50" relative="1" as="geometry">
            <mxPoint x="200" y="320" as="sourcePoint" />
            <mxPoint x="130" y="330" as="targetPoint" />
            <Array as="points">
              <mxPoint x="200" y="280" />
              <mxPoint x="360" y="280" />
            </Array>
          </mxGeometry>
        </mxCell>
        <mxCell id="0OFy3xrJt5Z_TGlZJ1PU-2" value="" style="endArrow=classic;html=1;entryX=0.75;entryY=1;entryDx=0;entryDy=0;exitX=0.25;exitY=0;exitDx=0;exitDy=0;" parent="1" source="tBBY-zIX_COKxprFF8_Z-13" target="tBBY-zIX_COKxprFF8_Z-1" edge="1">
          <mxGeometry width="50" height="50" relative="1" as="geometry">
            <mxPoint x="130" y="330" as="sourcePoint" />
            <mxPoint x="370" y="210" as="targetPoint" />
            <Array as="points">
              <mxPoint x="560" y="280" />
              <mxPoint x="440" y="280" />
            </Array>
          </mxGeometry>
        </mxCell>
        <mxCell id="0OFy3xrJt5Z_TGlZJ1PU-9" value="&lt;span style=&quot;color: rgb(0 , 0 , 0) ; font-family: &amp;#34;helvetica&amp;#34; ; font-size: 12px ; font-style: normal ; font-weight: 400 ; letter-spacing: normal ; text-align: center ; text-indent: 0px ; text-transform: none ; word-spacing: 0px ; display: inline ; float: none&quot;&gt;STORYBOOK&lt;/span&gt;" style="text;whiteSpace=wrap;html=1;fontSize=10;" parent="1" vertex="1">
          <mxGeometry x="360" y="147.5" width="80" height="25" as="geometry" />
        </mxCell>
      </root>
    </mxGraphModel>
  </diagram>
</mxfile>
